# Blender v2.80 (sub 75) OBJ File: 'pillar_cliff2.8.blend'
# www.blender.org
mtllib pillar_cliff.mtl
o Plane.001
v -34.420578 95.443466 -32.249580
v -57.356651 51.862415 -13.456134
v -30.250830 46.634193 -2.010760
v 7.059657 96.352722 -14.812474
v 30.649908 46.634193 -2.010760
v 31.910276 89.733589 -21.570517
v 28.448532 193.806854 -11.321338
v 1.389954 144.290695 -10.341137
v 25.131868 141.273361 -22.484369
v -20.944315 199.570862 -15.720561
v -50.807465 142.637238 -62.958828
v -37.368118 142.637222 -18.928617
v 5.827334 193.806854 -9.769570
v -1.890788 238.771194 -49.080975
v -8.822142 239.570267 -58.093521
v -51.022285 198.961136 -70.213882
v 38.483177 193.806854 -23.218212
v 42.839142 141.273361 -15.459389
v 20.989037 238.771194 -50.632736
v 37.661797 238.771194 -64.598640
v 45.580727 44.546097 -4.129075
v 52.518517 96.883766 -30.810890
v 0.791279 46.634193 -0.458994
v -57.037605 99.762428 -41.782494
v 68.046944 203.476349 -84.214447
v 49.350563 247.111160 -108.121994
v 54.142601 141.273361 -74.426498
v 51.882568 96.654213 -88.316841
v 62.717773 45.742020 -88.288895
v -60.848083 104.701820 -83.946915
v -60.512077 150.531723 -105.547508
v -65.617783 55.892551 -75.546715
v -18.784981 244.888626 -79.699486
v -54.147079 208.219498 -115.818039
v -24.680836 253.535904 -121.116501
v 29.444780 5.590139 -2.702728
v 63.603912 18.242363 -19.448532
v -63.047653 13.887318 -80.630806
v -53.434158 7.743500 -13.594367
v -27.660450 2.772217 -2.711475
v -2.197508 8.286473 2.166950
v 66.084488 2.920389 -94.036575
v -49.587830 -39.327869 -65.640800
v -49.217659 -42.346329 -30.600201
v -25.355154 -46.632248 -16.554548
v 3.917376 -46.787247 -5.143274
v 61.670784 -48.104385 -8.487385
v 86.333252 -34.843204 -98.525322
v 27.974213 -46.787247 -6.393520
v -83.623253 -81.313362 -87.154877
v -59.047554 -83.230270 -33.207417
v -42.117844 -81.831436 -2.722152
v -9.910685 -107.475327 6.973366
v 60.829948 -93.230354 -25.655664
v 100.479836 -100.583893 -108.132584
v 34.282394 -98.085709 10.001574
v 93.012733 -149.273193 -0.018487
v 121.353394 -157.960510 -116.392235
v 7.808919 -146.458435 7.534655
v 51.303268 -146.458435 5.274232
v -88.927589 -132.972031 -101.843849
v -84.315575 -138.421188 -16.706821
v -37.409378 -146.458435 5.274237
vt 0.871683 1.123028
vt 0.459687 1.214132
vt 0.425061 0.984417
vt 0.899734 0.729168
vt 0.472302 0.491303
vt 0.877018 0.494166
vt 1.647341 0.694496
vt 1.291519 0.819173
vt 1.292786 0.612587
vt 1.659052 1.014704
vt 1.313500 1.476040
vt 1.268512 1.111788
vt 1.631599 0.836238
vt 2.066918 0.942692
vt 2.112440 1.029866
vt 1.780279 1.424002
vt 1.683007 0.594553
vt 1.329175 0.480923
vt 2.089645 0.749554
vt 2.163869 0.588456
vt 0.469055 0.364362
vt 0.975660 0.308128
vt 0.446538 0.735992
vt 0.899583 1.346055
vt 2.025001 0.173310
vt 2.460043 0.324077
vt 1.476468 0.033409
vt 1.129776 -0.194834
vt 0.695767 -0.336711
vt 1.006050 1.728669
vt 1.466295 1.845037
vt 0.549038 1.723648
vt 2.226600 1.223358
vt 2.008009 1.755978
vt 2.460043 1.540562
vt 0.122968 0.460732
vt 0.268941 0.145494
vt 0.166907 1.786205
vt 0.108549 1.192379
vt 0.064771 0.958978
vt 0.124052 0.737748
vt 0.349682 -0.511817
vt -0.324949 1.628472
vt -0.378980 1.140380
vt -0.406817 0.888282
vt -0.378466 0.647245
vt -0.320357 0.118852
vt -0.003172 -0.665408
vt -0.349910 0.423405
vt -0.729451 1.934053
vt -0.887631 1.327781
vt -0.778258 0.967373
vt -0.961542 0.687166
vt -0.710877 -0.107066
vt -0.523726 -0.942825
vt -0.831969 0.300212
vt -1.341165 -0.244837
vt -0.976306 -1.268241
vt -1.286930 0.489878
vt -1.249931 0.108701
vt -1.149307 2.136906
vt -1.460043 1.448886
vt -1.337338 0.885079
vn -0.2561 0.4933 0.8313
vn -0.2560 0.4932 0.8314
vn -0.2559 0.4932 0.8314
vn 0.3358 0.3811 0.8614
vn 0.4232 -0.2138 0.8805
vn -0.9258 0.2511 0.2826
vn -0.2165 0.0080 0.9762
vn -0.2157 0.0073 0.9764
vn -0.2166 0.0081 0.9762
vn -0.0267 0.6554 0.7548
vn -0.6961 0.6107 0.3774
vn -0.3667 0.1061 0.9243
vn 0.5218 0.5828 0.6229
vn 0.0508 0.6622 0.7476
vn 0.0512 0.6622 0.7476
vn 0.0513 0.6621 0.7476
vn 0.2492 0.4134 0.8758
vn -0.3422 -0.3729 0.8625
vn 0.2752 0.0532 0.9599
vn -0.0479 0.2826 0.9580
vn -0.3818 -0.1305 0.9150
vn -0.4173 -0.2709 0.8674
vn 0.7988 0.5138 0.3130
vn 0.8998 -0.1359 0.4146
vn 0.9988 -0.0472 -0.0109
vn 0.9780 0.2081 -0.0116
vn -0.9742 0.1964 0.1111
vn -0.9737 0.0255 0.2266
vn -0.9867 0.0876 0.1370
vn -0.7888 0.5896 0.1737
vn -0.2562 0.4933 0.8313
vn 0.0500 0.2712 0.9612
vn 0.0684 -0.0176 0.9975
vn -0.8743 0.0587 0.4819
vn -0.2155 0.0071 0.9765
vn -0.5510 0.6798 0.4840
vn -0.6818 0.5726 0.4553
vn 0.7516 -0.1822 0.6340
vn 0.6290 0.5682 0.5306
vn 0.0507 0.6623 0.7475
vn 0.1835 0.4018 0.8972
vn 0.3886 0.0674 0.9189
vn 0.4522 -0.0297 0.8914
vn -0.3505 0.4714 0.8093
vn -0.1965 -0.2777 0.9404
vn -0.9203 0.2725 0.2809
vn 0.7853 0.4269 0.4483
vn 0.9763 0.1086 0.1871
vn 0.9714 0.1474 0.1862
vn 0.9796 -0.0284 0.1991
vn -0.9627 0.1210 0.2418
vn -0.9877 0.1256 0.0932
vn -0.9881 0.1142 0.1027
vn -0.8036 0.5493 0.2291
vn 0.3790 -0.1234 0.9171
vn -0.9880 -0.0824 0.1303
vn -0.3949 -0.0380 0.9179
vn 0.1046 0.0187 0.9943
vn 0.9588 0.2678 0.0947
vn -0.1153 0.0238 0.9930
vn -0.9822 -0.1696 0.0808
vn -0.4722 -0.2891 0.8327
vn -0.2597 -0.2117 0.9422
vn 0.9708 0.1806 0.1578
vn 0.1041 -0.0968 0.9898
vn 0.2591 0.0516 0.9645
vn -0.8815 0.3884 0.2686
vn -0.6839 0.3347 0.6482
vn -0.1887 0.3122 0.9311
vn 0.9363 0.0278 0.3500
vn -0.0596 0.2500 0.9664
vn 0.5299 0.0232 0.8478
vn 0.8593 0.4415 0.2582
vn -0.0035 -0.0490 0.9988
vn 0.4675 0.3801 0.7981
vn -0.9387 0.2722 0.2114
vn -0.5974 0.2578 0.7594
vn -0.1354 0.0524 0.9894
usemtl Material.002
s 1
f 1/1/1 2/2/2 3/3/3
f 4/4/4 5/5/4 6/6/4
f 7/7/5 8/8/5 9/9/5
f 10/10/6 11/11/6 12/12/6
f 13/13/7 12/12/8 8/8/9
f 14/14/10 10/10/10 13/13/10
f 15/15/11 16/16/11 10/10/11
f 17/17/12 9/9/12 18/18/12
f 19/19/13 17/17/13 20/20/13
f 19/19/14 13/13/15 7/7/16
f 6/6/17 21/21/17 22/22/17
f 9/9/18 22/22/18 18/18/18
f 9/9/19 4/4/19 6/6/19
f 4/4/20 3/3/20 23/23/20
f 8/8/21 1/1/21 4/4/21
f 12/12/22 24/24/22 1/1/22
f 20/20/23 25/25/23 26/26/23
f 17/17/24 27/27/24 25/25/24
f 27/27/25 22/22/25 28/28/25
f 22/22/26 29/29/26 28/28/26
f 11/11/27 30/30/27 24/24/27
f 16/16/28 31/31/28 11/11/28
f 24/24/29 32/32/29 2/2/29
f 33/33/30 34/34/30 16/16/30
f 1/1/1 24/24/31 2/2/2
f 4/4/32 23/23/32 5/5/32
f 7/7/33 13/13/33 8/8/33
f 10/10/34 16/16/34 11/11/34
f 13/13/7 10/10/35 12/12/8
f 14/14/36 15/15/36 10/10/36
f 15/15/37 33/33/37 16/16/37
f 17/17/38 7/7/38 9/9/38
f 19/19/39 7/7/39 17/17/39
f 19/19/14 14/14/40 13/13/15
f 6/6/41 5/5/41 21/21/41
f 9/9/42 6/6/42 22/22/42
f 9/9/43 8/8/43 4/4/43
f 4/4/44 1/1/44 3/3/44
f 8/8/45 12/12/45 1/1/45
f 12/12/46 11/11/46 24/24/46
f 20/20/47 17/17/47 25/25/47
f 17/17/48 18/18/48 27/27/48
f 27/27/49 18/18/49 22/22/49
f 22/22/50 21/21/50 29/29/50
f 11/11/51 31/31/51 30/30/51
f 16/16/52 34/34/52 31/31/52
f 24/24/53 30/30/53 32/32/53
f 33/33/54 35/35/54 34/34/54
f 21/21/55 5/5/55 36/36/55 37/37/55
f 2/2/56 32/32/56 38/38/56 39/39/56
f 3/3/57 2/2/57 39/39/57 40/40/57
f 5/5/58 23/23/58 41/41/58 36/36/58
f 29/29/59 21/21/59 37/37/59 42/42/59
f 23/23/60 3/3/60 40/40/60 41/41/60
f 39/39/61 38/38/61 43/43/61 44/44/61
f 40/40/62 39/39/62 44/44/62 45/45/62
f 41/41/63 40/40/63 45/45/63 46/46/63
f 42/42/64 37/37/64 47/47/64 48/48/64
f 36/36/65 41/41/65 46/46/65 49/49/65
f 37/37/66 36/36/66 49/49/66 47/47/66
f 44/44/67 43/43/67 50/50/67 51/51/67
f 45/45/68 44/44/68 51/51/68 52/52/68
f 46/46/69 45/45/69 52/52/69 53/53/69
f 48/48/70 47/47/70 54/54/70 55/55/70
f 49/49/71 46/46/71 53/53/71 56/56/71
f 47/47/72 49/49/72 56/56/72 54/54/72
f 55/55/73 54/54/73 57/57/73 58/58/73
f 56/56/74 53/53/74 59/59/74 60/60/74
f 54/54/75 56/56/75 60/60/75 57/57/75
f 51/51/76 50/50/76 61/61/76 62/62/76
f 52/52/77 51/51/77 62/62/77 63/63/77
f 53/53/78 52/52/78 63/63/78 59/59/78
